<?xml version="1.0" ?><!DOCTYPE svg  PUBLIC '-//W3C//DTD SVG 1.0//EN'  'http://www.w3.org/TR/2001/REC-SVG-20010904/DTD/svg10.dtd'><svg height="110px" style="enable-background:new 0 0 110 110;" version="1.0" viewBox="0 0 110 110" width="110px" xml:space="preserve" xmlns="http://www.w3.org/2000/svg" xmlns:xlink="http://www.w3.org/1999/xlink"><g id="Artboard"/><g id="Multicolor"><circle cx="55" cy="55" r="55" style="fill:#32BEA6;"/><g><path d="M83,67H43v16c0,2.209-1.791,4-4,4h44c2.209,0,4-1.791,4-4V71C87,68.791,85.209,67,83,67z" style="fill:#FFFFFF;"/><rect height="12" style="fill:#F79392;" width="6" x="63" y="71"/><rect height="12" style="fill:#F79392;" width="6" x="73" y="71"/><polygon points="43,82.049 43,83 49,83 49,78.844   " style="fill:#DF2C2C;"/><polygon points="53,76.707 53,83 59,83 59,73.502   " style="fill:#FA5655;"/><path d="M83.115,56.011l-5.83-10.489c-1.073-1.931-3.508-2.626-5.439-1.553L43,59.377v22.671l38.562-20.598    C83.493,60.378,84.188,57.942,83.115,56.011z" style="fill:#FFFFFF;"/><rect height="6" style="fill:#FBEC9A;" transform="matrix(0.4858 0.8741 -0.8741 0.4858 85.3401 -32.844)" width="12" x="64.585" y="53.111"/><rect height="6" style="fill:#FBE158;" transform="matrix(0.4858 0.8741 -0.8741 0.4858 85.0918 -22.706)" width="12" x="55.844" y="57.969"/><polygon points="45.411,76.967 49.9,74.472 48.379,71.736   " style="fill:#FACB1B;"/><polygon points="50.691,67.662 53.396,72.529 58.641,69.614 54.16,61.551   " style="fill:#FACB1B;"/><path d="M65.552,33.499l-10.343-6.085c-1.904-1.12-4.356-0.485-5.476,1.419L43,40.698v40.517l23.972-42.24    C68.092,37.071,67.457,34.619,65.552,33.499z" style="fill:#FFFFFF;"/><rect height="6" style="fill:#40C9E7;" transform="matrix(0.8619 0.5071 -0.5071 0.8619 27.818 -22.2733)" width="12" x="48.803" y="36.938"/><rect height="6" style="fill:#21B2D1;" transform="matrix(0.8619 0.5071 -0.5071 0.8619 31.4882 -18.5122)" width="12" x="43.733" y="45.557"/><polygon points="43,52.718 43,59.679 48.312,62.804 51.355,57.633   " style="fill:#059BBF;"/><polygon points="43,64.32 43,71.281 43.242,71.423 46.284,66.252   " style="fill:#0484AB;"/><path d="M39,23H27c-2.209,0-4,1.791-4,4v56c0,2.209,1.791,4,4,4h12c2.209,0,4-1.791,4-4V27    C43,24.791,41.209,23,39,23z M33,79c-1.104,0-2-0.896-2-2s0.896-2,2-2s2,0.896,2,2S34.104,79,33,79z" style="fill:#DF2C2C;"/><path d="M43,36.355V27c0-2.209-1.791-4-4-4H27c-2.209,0-4,1.791-4,4v29.355L43,36.355z" style="fill:#FA5655;"/><g><path d="M30.644,70.292c-0.276,0-0.488-0.213-0.488-0.488v-1.685c0-1.291,0.732-2.094,1.842-2.094h0.016     c1.236,0,1.882,0.992,1.882,2.205v1.094h1.331c0.268,0,0.48,0.213,0.48,0.48c0,0.275-0.213,0.488-0.48,0.488H30.644z      M33.022,68.197c0-0.732-0.409-1.189-0.984-1.189h-0.016c-0.646,0-0.984,0.464-0.984,1.189v1.125h1.984V68.197z" style="fill:#FFFFFF;"/><path d="M35.038,65.785l-4.567-2.047c-0.244-0.11-0.394-0.307-0.394-0.583v-0.047     c0-0.275,0.15-0.464,0.394-0.575l4.567-2.047c0.071-0.04,0.142-0.055,0.205-0.055c0.26,0,0.464,0.197,0.464,0.457     c0,0.229-0.134,0.386-0.339,0.473l-1.031,0.449v2.677L35.4,64.95c0.197,0.079,0.307,0.244,0.307,0.449     c0,0.252-0.197,0.449-0.449,0.449C35.187,65.848,35.116,65.824,35.038,65.785z M33.479,62.179l-2.228,0.969l2.228,0.968V62.179z" style="fill:#FFFFFF;"/><path d="M30.613,59.38c-0.268,0-0.488-0.213-0.488-0.488V58.79c0-0.236,0.118-0.37,0.283-0.504     l3.567-2.755h-3.385c-0.26,0-0.472-0.213-0.472-0.473c0-0.268,0.213-0.48,0.472-0.48h4.63c0.268,0,0.48,0.205,0.48,0.473v0.04     c0,0.228-0.118,0.37-0.291,0.504l-3.669,2.834h3.496c0.26,0,0.472,0.212,0.472,0.472c0,0.268-0.213,0.48-0.472,0.48H30.613z" style="fill:#FFFFFF;"/><path d="M31.054,51.802v1.338c0,0.252-0.205,0.449-0.449,0.449c-0.244,0-0.449-0.197-0.449-0.449v-3.661     c0-0.244,0.205-0.441,0.449-0.441c0.244,0,0.449,0.197,0.449,0.441v1.347h4.173c0.268,0,0.48,0.22,0.48,0.488     c0,0.268-0.213,0.488-0.48,0.488H31.054z" style="fill:#FFFFFF;"/><path d="M32.927,48.595h-0.016c-1.551,0-2.85-1.197-2.85-2.89s1.283-2.874,2.834-2.874h0.016     c1.551,0,2.85,1.197,2.85,2.89S34.479,48.595,32.927,48.595z M32.927,43.847h-0.016c-1.071,0-1.961,0.78-1.961,1.874     s0.874,1.858,1.945,1.858h0.016c1.071,0,1.953-0.779,1.953-1.874C34.864,44.611,33.998,43.847,32.927,43.847z" style="fill:#FFFFFF;"/><path d="M30.613,41.655c-0.268,0-0.488-0.213-0.488-0.488v-0.103c0-0.236,0.118-0.37,0.283-0.504     l3.567-2.755h-3.385c-0.26,0-0.472-0.213-0.472-0.473c0-0.268,0.213-0.48,0.472-0.48h4.63c0.268,0,0.48,0.205,0.48,0.473v0.04     c0,0.228-0.118,0.37-0.291,0.504l-3.669,2.834h3.496c0.26,0,0.472,0.212,0.472,0.472c0,0.268-0.213,0.48-0.472,0.48H30.613z" style="fill:#FFFFFF;"/><path d="M35.179,35.431h-4.535c-0.276,0-0.488-0.213-0.488-0.488v-3.205c0-0.236,0.197-0.433,0.433-0.433     c0.244,0,0.433,0.197,0.433,0.433v2.724h1.433v-2.37c0-0.236,0.197-0.433,0.441-0.433c0.236,0,0.425,0.197,0.425,0.433v2.37h1.48     v-2.763c0-0.236,0.197-0.433,0.433-0.433c0.244,0,0.433,0.197,0.433,0.433v3.244C35.667,35.218,35.455,35.431,35.179,35.431z" style="fill:#FFFFFF;"/></g></g></g></svg>