<?xml version="1.0" ?><!DOCTYPE svg  PUBLIC '-//W3C//DTD SVG 1.0//EN'  'http://www.w3.org/TR/2001/REC-SVG-20010904/DTD/svg10.dtd'><svg height="110px" style="enable-background:new 0 0 110 110;" version="1.0" viewBox="0 0 110 110" width="110px" xml:space="preserve" xmlns="http://www.w3.org/2000/svg" xmlns:xlink="http://www.w3.org/1999/xlink"><g id="Artboard"/><g id="Multicolor"><circle cx="55" cy="55" r="55" style="fill:#FABC3D;"/><g><g><path d="M67,55c0,17.669-8.008,32-12,32c-3.99,0-12-14.328-12-32c0-17.671,8.009-32,12-32S67,37.329,67,55     z" style="fill:#059BBF;"/></g><g><path d="M57,23.91v62.18c-0.73,0.6-1.41,0.91-2,0.91c-0.59,0-1.27-0.31-2-0.91V23.91     c0.73-0.6,1.41-0.91,2-0.91C55.59,23,56.27,23.31,57,23.91z" style="fill:#FFFFFF;"/></g><g><path d="M55,51c-4.808,0-8.143,14.963-5.214,18.536C50.546,70.463,51.681,71,52.879,71h4.242     c1.198,0,2.334-0.537,3.093-1.464C63.078,66.042,59.852,51,55,51z" style="fill:#3E3E3F;"/></g><g><path d="M72.497,39.971l4.95,0.707l9.192-9.192c-0.471-4.243-4.243-8.014-8.485-8.485l-9.192,9.192     l0.707,4.95L37.142,69.669l-4.95-0.707L23,78.154c0.472,4.243,4.243,8.014,8.485,8.485l9.192-9.192l-0.707-4.95L72.497,39.971z" style="fill:#E2E4E5;"/></g><g><path d="M78.154,23l-9.192,9.192l0.707,4.95L37.142,69.669l-4.95-0.707L23,78.154     c0.237,2.135,1.312,4.15,2.86,5.686l57.98-57.98C82.304,24.312,80.29,23.237,78.154,23z" style="fill:#FFFFFF;"/></g></g></g></svg>