<?xml version="1.0" ?><!DOCTYPE svg  PUBLIC '-//W3C//DTD SVG 1.0//EN'  'http://www.w3.org/TR/2001/REC-SVG-20010904/DTD/svg10.dtd'><svg height="110px" style="enable-background:new 0 0 110 110;" version="1.0" viewBox="0 0 110 110" width="110px" xml:space="preserve" xmlns="http://www.w3.org/2000/svg" xmlns:xlink="http://www.w3.org/1999/xlink"><g id="Artboard"/><g id="Multicolor"><circle cx="55" cy="55" r="55" style="fill:#25B7D3;"/><g><circle cx="50" cy="29" r="6" style="fill:#FFFFFF;"/><path d="M29.434,54.346l19.554-26.968c0.339-0.428,0.967-0.502,1.373-0.188l23.834,19.781l2.613-0.43    L51.614,25.632c-1.293-1.006-3.174-0.78-4.218,0.538L26.629,54.808L29.434,54.346z" style="fill:#3E3E3F;"/><rect height="52" style="fill:#0D9681;" transform="matrix(0.1626 0.9867 -0.9867 0.1626 111.4619 1.4042)" width="24" x="42.904" y="40.366"/><path d="M78.607,50.299l3.901,23.681L31.2,82.433l-3.901-23.681L78.607,50.299 M80.258,46    c-0.256,0-55.33,9.089-55.583,9.13c-1.09,0.179-1.828,1.208-1.648,2.298l4.552,27.628c0.161,0.98,1.009,1.675,1.971,1.675    c0.257,0,55.329-9.088,55.583-9.13c1.09-0.18,1.828-1.209,1.648-2.299l-4.552-27.627C82.067,46.695,81.219,46,80.258,46L80.258,46    z" style="fill:#FFFFFF;"/><circle cx="50" cy="29" r="2" style="fill:#CFD3D4;"/><polygon points="31.2,82.433 31.303,82.416 60.425,53.294 27.299,58.752   " style="fill:#17B198;"/><path d="M32.136,70.546l-0.005-0.032c-0.519-3.149,1.541-6.137,4.958-6.7    c3.418-0.563,6.29,1.58,6.809,4.729l0.005,0.032c0.409,3.269-1.651,6.258-4.958,6.7C35.512,75.734,32.655,73.695,32.136,70.546z     M41.362,69.026l-0.005-0.032c-0.312-1.899-1.966-3.251-3.928-2.928c-1.962,0.323-3.067,2.098-2.754,3.997l0.005,0.031    c0.313,1.899,1.966,3.252,3.928,2.929C40.569,72.7,41.675,70.925,41.362,69.026z" style="fill:#F0F1F1;"/><path d="M43.903,68.575l-0.005-0.032c-0.519-3.149-3.391-5.292-6.809-4.729    c-3.417,0.563-5.477,3.551-4.958,6.7l0.005,0.032c0.49,2.973,3.077,5.046,6.241,4.796l5.602-5.602    C43.992,69.357,43.968,68.967,43.903,68.575z M38.606,73.023c-1.961,0.323-3.615-1.029-3.928-2.929l-0.005-0.031    c-0.313-1.899,0.792-3.674,2.754-3.997c1.962-0.323,3.616,1.029,3.928,2.928l0.005,0.032C41.675,70.925,40.569,72.7,38.606,73.023    z" style="fill:#FFFFFF;"/><path d="M45.354,63.899c-0.112-0.681,0.337-1.308,1.018-1.419l3.307-0.545    c2.643-0.435,4.499,0.868,4.872,3.131l0.005,0.032c0.422,2.563-1.353,4.221-3.837,4.63l-1.852,0.305l0.362,2.199    c0.112,0.681-0.337,1.307-1.018,1.419s-1.307-0.337-1.419-1.018L45.354,63.899z M50.44,67.547    c1.219-0.201,1.811-1.046,1.655-1.995L52.09,65.52c-0.18-1.092-1.036-1.552-2.255-1.352l-1.883,0.31l0.558,3.387L50.44,67.547z" style="fill:#F0F1F1;"/><path d="M49.679,61.935l-3.307,0.545c-0.68,0.112-1.13,0.739-1.018,1.419l0.632,3.834l2.149-2.149    l-0.182-1.106l1.542-0.254l2.239-2.239C51.121,61.843,50.437,61.81,49.679,61.935z" style="fill:#FFFFFF;"/><path d="M57.342,70.798l-1.423-8.64c-0.112-0.681,0.337-1.307,1.018-1.419l6.14-1.011    c0.601-0.099,1.172,0.311,1.271,0.912c0.099,0.602-0.313,1.157-0.915,1.256l-4.937,0.813l0.37,2.247l4.225-0.696    c0.601-0.099,1.172,0.311,1.271,0.912s-0.313,1.157-0.914,1.256l-4.225,0.696l0.383,2.326l5.016-0.827    c0.602-0.099,1.173,0.311,1.272,0.912c0.099,0.602-0.313,1.157-0.915,1.256l-6.219,1.024    C58.081,71.928,57.455,71.479,57.342,70.798z" style="fill:#F0F1F1;"/><path d="M66.506,60.35c-0.112-0.681,0.337-1.307,1.017-1.419l0.253-0.042    c0.586-0.097,0.981,0.131,1.384,0.503l5.716,5.397l-0.941-5.712c-0.11-0.665,0.34-1.292,1.005-1.401    c0.665-0.109,1.291,0.34,1.401,1.005l1.452,8.813c0.112,0.681-0.337,1.307-1.018,1.419l-0.079,0.013    c-0.586,0.097-0.981-0.131-1.384-0.503l-5.927-5.59l0.978,5.934c0.11,0.665-0.34,1.291-1.004,1.4    c-0.664,0.109-1.291-0.339-1.4-1.004L66.506,60.35z" style="fill:#F0F1F1;"/></g></g></svg>