<?xml version="1.0" ?><!DOCTYPE svg  PUBLIC '-//W3C//DTD SVG 1.0//EN'  'http://www.w3.org/TR/2001/REC-SVG-20010904/DTD/svg10.dtd'><svg height="110px" style="enable-background:new 0 0 110 110;" version="1.0" viewBox="0 0 110 110" width="110px" xml:space="preserve" xmlns="http://www.w3.org/2000/svg" xmlns:xlink="http://www.w3.org/1999/xlink"><g id="Artboard"/><g id="Multicolor"><circle cx="55" cy="55" r="55" style="fill:#32BEA6;"/><g><rect height="60" style="fill:#FFFFFF;" width="50" x="37" y="27"/><g><path d="M65.724,73c0,4.418,3.582,8,8,8c4.418,0,8.416-3.601,8-8c-0.423-4.476-3.893-8.042-8-8     C69.306,65.046,65.724,68.582,65.724,73z" style="fill:#FBE158;"/><path d="M65.724,73c0,4.42,3.58,8,8,8c3.36,0,6.233-2.067,7.42-5l-14.78-6.153     C65.951,70.813,65.724,71.88,65.724,73z" style="fill:#059BBF;"/><path d="M65.712,73.003c0,2.82,1.46,5.3,3.667,6.727l4.327-6.82l-7.353-3.06     C65.939,70.817,65.712,71.883,65.712,73.003z" style="fill:#4AC3AF;"/><path d="M66.364,69.847l7.36,3.067V65C70.424,65,67.591,67,66.364,69.847z" style="fill:#FA5655;"/></g><rect height="18" style="fill:#4AC3AF;" width="4" x="77" y="40"/><rect height="10" style="fill:#4AC3AF;" width="4" x="69.712" y="48"/><g><circle cx="60.333" cy="68.167" r="1.5" style="fill:#CFD3D4;"/><rect height="1" style="fill:#CFD3D4;" width="10" x="46.712" y="67.667"/></g><g><circle cx="60.333" cy="73.333" r="1.5" style="fill:#CFD3D4;"/><rect height="1" style="fill:#CFD3D4;" width="10" x="46.712" y="72.833"/></g><g><circle cx="60.333" cy="78.5" r="1.5" style="fill:#CFD3D4;"/><rect height="1" style="fill:#CFD3D4;" width="10" x="46.712" y="78"/></g><path d="M39.742,58.021L28.944,68.819c-1.344,1.344-3.522,1.344-4.867,0s-1.344-3.522,0-4.867L34.9,53.131    C36.098,55.126,37.758,56.805,39.742,58.021z" style="fill:#84462D;"/><path d="M36.992,55.826L24.041,68.777c-1.308-1.344-1.296-3.492,0.03-4.824L34.9,53.125    C35.489,54.104,36.195,55.01,36.992,55.826z" style="fill:#9C6144;"/><path d="M47.4,60.1c-7.995,0-14.5-6.505-14.5-14.5s6.505-14.5,14.5-14.5s14.5,6.505,14.5,14.5    S55.396,60.1,47.4,60.1z" style="fill:#FFFFFF;"/><path d="M47.4,31.088c8.012,0,14.512,6.5,14.512,14.512s-6.5,14.512-14.512,14.512    c-8.041,0-14.512-6.561-14.512-14.512C32.888,37.588,39.388,31.088,47.4,31.088 M47.4,29.1c-9.098,0-16.5,7.402-16.5,16.5    s7.402,16.5,16.5,16.5s16.5-7.402,16.5-16.5S56.499,29.1,47.4,29.1L47.4,29.1z" style="fill:#CFD3D4;"/><circle cx="47.4" cy="45.6" r="11.558" style="fill:#6FDAF1;"/><path d="M47.4,34.042c-6.383,0-11.558,5.175-11.558,11.558c0,3.158,1.27,6.018,3.323,8.104l16.339-16.339    C53.418,35.311,50.559,34.042,47.4,34.042z" style="fill:#9CE5F4;"/></g></g></svg>